<svg xmlns="http://www.w3.org/2000/svg" width="122" height="122" viewBox="0 0 122 122" fill="none"><path d="M60.544 120.544C93.681 120.544 120.544 93.681 120.544 60.5439C120.544 27.4069 93.681 0.543945 60.544 0.543945C27.4069 0.543945 0.543945 27.4069 0.543945 60.5439C0.543945 93.681 27.4069 120.544 60.544 120.544Z" fill="url(#paint0_linear_1614_1443)" stroke="white" stroke-width="1.08833"></path><path d="M60.0725 85.9716V45.8934L61.2313 46.916C60.5499 48.3245 59.5729 49.6424 58.3006 50.8694C57.0283 52.0508 55.5286 53.0731 53.8019 53.9363C52.1205 54.7542 50.2351 55.3677 48.1445 55.7768V45.5529C49.8259 45.3255 51.5753 44.7802 53.3928 43.9171C55.2107 43.0083 56.8465 41.9404 58.3006 40.7134C59.7999 39.4411 60.8678 38.1688 61.5039 36.8965H70.2965V85.9716H60.0725Z" fill="#121212"></path><defs><linearGradient id="paint0_linear_1614_1443" x1="-1.69208" y1="113.344" x2="148.588" y2="101.875" gradientUnits="userSpaceOnUse"><stop stop-color="#CBAF48"></stop><stop offset="1" stop-color="#FFEFB4"></stop></linearGradient></defs></svg>