<svg xmlns="http://www.w3.org/2000/svg" width="122" height="122" viewBox="0 0 122 122" fill="none"><path d="M60.544 120.544C93.681 120.544 120.544 93.681 120.544 60.5439C120.544 27.4069 93.681 0.543945 60.544 0.543945C27.4069 0.543945 0.543945 27.4069 0.543945 60.5439C0.543945 93.681 27.4069 120.544 60.544 120.544Z" fill="url(#paint0_linear_1614_1447)" stroke="white" stroke-width="1.08833"></path><path d="M43.9805 83.3301V75.9327C48.0978 72.6042 51.5286 69.748 54.2734 67.3645C57.0599 64.9397 59.2641 62.8028 60.8859 60.9534C62.5494 59.1039 63.7348 57.4192 64.4416 55.8985C65.1488 54.3782 65.5022 52.8575 65.5022 51.3368C65.5022 49.5287 65.0032 48.1314 64.0051 47.1452C63.0484 46.1179 61.6969 45.604 59.9503 45.604C58.1204 45.604 56.6026 46.1589 55.3964 47.2686C54.1902 48.378 53.4416 49.8987 53.1507 51.8303H43.5439C44.0012 47.6383 45.7272 44.3507 48.7214 41.9672C51.716 39.5425 55.5835 38.3301 60.3247 38.3301C65.1488 38.3301 68.9123 39.5629 71.6156 42.0289C74.319 44.4534 75.6705 47.8439 75.6705 52.2C75.6705 54.2547 75.317 56.2273 74.6099 58.1177C73.9445 60.0083 72.8218 61.9601 71.2415 63.9739C69.6609 65.9877 67.4984 68.2068 64.7536 70.6313C62.0503 73.0151 58.6609 75.7478 54.5854 78.8301L52.2772 76.0561H76.5439V83.3301H43.9805Z" fill="#121212"></path><defs><linearGradient id="paint0_linear_1614_1447" x1="-1.69208" y1="113.344" x2="148.588" y2="101.875" gradientUnits="userSpaceOnUse"><stop stop-color="#CBAF48"></stop><stop offset="1" stop-color="#FFEFB4"></stop></linearGradient></defs></svg>