<svg xmlns="http://www.w3.org/2000/svg" width="122" height="122" viewBox="0 0 122 122" fill="none"><path d="M60.544 120.544C93.681 120.544 120.544 93.681 120.544 60.5439C120.544 27.4069 93.681 0.543945 60.544 0.543945C27.4069 0.543945 0.543945 27.4069 0.543945 60.5439C0.543945 93.681 27.4069 120.544 60.544 120.544Z" fill="url(#paint0_linear_1614_1492)" stroke="white" stroke-width="1.08833"></path><path d="M60.6295 85.3301C57.3334 85.3301 54.3624 84.7344 51.7167 83.5424C49.1145 82.3064 46.9896 80.5186 45.3415 78.1789C43.7367 75.7951 42.8042 72.9037 42.5439 69.5045H52.4977C52.8446 72.2414 53.6685 74.2719 54.9695 75.5966C56.2706 76.8766 58.0273 77.5166 60.239 77.5166C62.1473 77.5166 63.7305 76.9429 64.9881 75.7951C66.2892 74.6474 66.9399 72.97 66.9399 70.7625C66.9399 68.6436 66.3111 66.9442 65.0532 65.6638C63.8389 64.3395 61.7571 63.6776 58.808 63.6776H54.6442V55.9963H58.6126C61.1716 55.9963 63.0147 55.4226 64.1423 54.2749C65.2702 53.1272 65.8339 51.6703 65.8339 49.9045C65.8339 48.2271 65.4002 46.8585 64.5328 45.7991C63.6654 44.6956 62.1908 44.1436 60.1091 44.1436C58.3308 44.1436 56.7911 44.6956 55.49 45.7991C54.1889 46.9028 53.3866 48.5802 53.0829 50.8317H43.0644C43.4549 47.8296 44.3874 45.2473 45.862 43.0842C47.3365 40.9213 49.3099 39.2659 51.7818 38.1181C54.254 36.9261 57.138 36.3301 60.4344 36.3301C63.7305 36.3301 66.5494 36.8598 68.8917 37.9196C71.2768 38.9347 73.1203 40.3916 74.4213 42.2896C75.7224 44.1879 76.3728 46.4614 76.3728 49.11C76.3728 51.3171 75.874 53.2594 74.8766 54.9369C73.879 56.6143 72.6214 57.9166 71.1033 58.8438C69.6288 59.7706 68.1326 60.2344 66.6145 60.2344L66.5494 58.8438C68.8481 58.8438 70.8215 59.4175 72.4696 60.5652C74.1176 61.669 75.3755 63.1698 76.2429 65.0682C77.1103 66.9222 77.5439 68.9967 77.5439 71.2922C77.5439 74.1617 76.8065 76.656 75.3319 78.7749C73.8574 80.8938 71.8408 82.5269 69.2818 83.6746C66.7228 84.7784 63.8389 85.3301 60.6295 85.3301Z" fill="#121212"></path><defs><linearGradient id="paint0_linear_1614_1492" x1="-1.69208" y1="113.344" x2="148.588" y2="101.875" gradientUnits="userSpaceOnUse"><stop stop-color="#CBAF48"></stop><stop offset="1" stop-color="#FFEFB4"></stop></linearGradient></defs></svg>